<svg xmlns="http://www.w3.org/2000/svg" viewBox="0 0 100 100"><defs><linearGradient id="brass" x1="0" y1="0" x2="0.6" y2="1"><stop offset="0" stop-color="#f4e3a6"/><stop offset="0.3" stop-color="#d1a954"/><stop offset="0.62" stop-color="#8c6a2a"/><stop offset="0.85" stop-color="#caa35a"/><stop offset="1" stop-color="#5e4418"/></linearGradient><radialGradient id="bead" cx="0.35" cy="0.3" r="0.8"><stop offset="0" stop-color="#fff6d0"/><stop offset="1" stop-color="#a67c2c"/></radialGradient><linearGradient id="iron" x1="0" y1="0" x2="0" y2="1"><stop offset="0" stop-color="#4a4540"/><stop offset="0.5" stop-color="#24211e"/><stop offset="1" stop-color="#121110"/></linearGradient><radialGradient id="enamel" cx="0.4" cy="0.34" r="0.78"><stop offset="0" stop-color="#bff7e2"/><stop offset="0.55" stop-color="#2fbf95"/><stop offset="1" stop-color="#0f5c48"/></radialGradient><linearGradient id="rel" x1="0" y1="0" x2="0.4" y2="1"><stop offset="0" stop-color="#fff4cc"/><stop offset="0.45" stop-color="#e9c46a"/><stop offset="1" stop-color="#9a6b1e"/></linearGradient></defs><circle cx="50" cy="51.5" r="48" fill="#1c0f05" opacity=".55"/><circle cx="50" cy="50" r="47" fill="url(#brass)" stroke="#1c0f05" stroke-width="2.4"/><circle cx="50" cy="50" r="46" fill="none" stroke="#fff3c4" stroke-width="1" opacity=".5"/><circle cx="93.30" cy="50.00" r="1.9" fill="url(#bead)" stroke="#1c0f05" stroke-width=".8"/><circle cx="90.00" cy="66.57" r="1.9" fill="url(#bead)" stroke="#1c0f05" stroke-width=".8"/><circle cx="80.62" cy="80.62" r="1.9" fill="url(#bead)" stroke="#1c0f05" stroke-width=".8"/><circle cx="66.57" cy="90.00" r="1.9" fill="url(#bead)" stroke="#1c0f05" stroke-width=".8"/><circle cx="50.00" cy="93.30" r="1.9" fill="url(#bead)" stroke="#1c0f05" stroke-width=".8"/><circle cx="33.43" cy="90.00" r="1.9" fill="url(#bead)" stroke="#1c0f05" stroke-width=".8"/><circle cx="19.38" cy="80.62" r="1.9" fill="url(#bead)" stroke="#1c0f05" stroke-width=".8"/><circle cx="10.00" cy="66.57" r="1.9" fill="url(#bead)" stroke="#1c0f05" stroke-width=".8"/><circle cx="6.70" cy="50.00" r="1.9" fill="url(#bead)" stroke="#1c0f05" stroke-width=".8"/><circle cx="10.00" cy="33.43" r="1.9" fill="url(#bead)" stroke="#1c0f05" stroke-width=".8"/><circle cx="19.38" cy="19.38" r="1.9" fill="url(#bead)" stroke="#1c0f05" stroke-width=".8"/><circle cx="33.43" cy="10.00" r="1.9" fill="url(#bead)" stroke="#1c0f05" stroke-width=".8"/><circle cx="50.00" cy="6.70" r="1.9" fill="url(#bead)" stroke="#1c0f05" stroke-width=".8"/><circle cx="66.57" cy="10.00" r="1.9" fill="url(#bead)" stroke="#1c0f05" stroke-width=".8"/><circle cx="80.62" cy="19.38" r="1.9" fill="url(#bead)" stroke="#1c0f05" stroke-width=".8"/><circle cx="90.00" cy="33.43" r="1.9" fill="url(#bead)" stroke="#1c0f05" stroke-width=".8"/><circle cx="50" cy="50" r="39.5" fill="url(#iron)" stroke="#1c0f05" stroke-width="1.8"/><circle cx="50" cy="50" r="35" fill="url(#enamel)"/><circle cx="50" cy="50" r="35" fill="none" stroke="#000" stroke-opacity=".45" stroke-width="3"/><circle cx="50" cy="50" r="33.2" fill="none" stroke="#bff7e2" stroke-opacity=".5" stroke-width="1"/><path d="M47.00 28.00 L51.24 47.76 L71.00 52.00 L51.24 56.24 L47.00 76.00 L42.76 56.24 L23.00 52.00 L42.76 47.76Z M68.00 23.00 L69.98 30.02 L77.00 32.00 L69.98 33.98 L68.00 41.00 L66.02 33.98 L59.00 32.00 L66.02 30.02Z" fill="#1c0f05" opacity=".75" transform="translate(1.6 2.4)" fill-rule="evenodd"/><path d="M47.00 28.00 L51.24 47.76 L71.00 52.00 L51.24 56.24 L47.00 76.00 L42.76 56.24 L23.00 52.00 L42.76 47.76Z M68.00 23.00 L69.98 30.02 L77.00 32.00 L69.98 33.98 L68.00 41.00 L66.02 33.98 L59.00 32.00 L66.02 30.02Z" fill="url(#rel)" stroke="#1c0f05" stroke-width="2" stroke-linejoin="round" fill-rule="evenodd"/><path d="M47.00 28.00 L51.24 47.76 L71.00 52.00 L51.24 56.24 L47.00 76.00 L42.76 56.24 L23.00 52.00 L42.76 47.76Z M68.00 23.00 L69.98 30.02 L77.00 32.00 L69.98 33.98 L68.00 41.00 L66.02 33.98 L59.00 32.00 L66.02 30.02Z" fill="none" stroke="#fffbe8" stroke-width="1" opacity=".55" transform="translate(-.6 -.7)" fill-rule="evenodd"/><path d="M24 36a29 29 0 0 1 18-16" stroke="#ffffff" stroke-opacity=".38" stroke-width="3.5" stroke-linecap="round" fill="none"/></svg>